<svg width="447" height="448" viewBox="0 0 447 448" fill="none" xmlns="http://www.w3.org/2000/svg">
<g clip-path="url(#clip0_202_31)">
<path d="M185.01 291.7C136.95 291.7 100.23 254.98 100.23 195.85C100.23 135.91 142.62 102.7 188.25 102.7C213.09 102.7 237.12 109.72 250.62 118.9L238.74 162.91H237.39C223.08 121.06 215.25 105.94 187.98 105.94C160.44 105.94 128.85 128.89 128.85 188.56C128.85 240.67 158.55 270.91 192.3 270.91C216.06 270.91 241.98 262.27 253.32 223.39L254.67 223.66C250.08 261.46 224.97 291.7 185.01 291.7Z" fill="black"/>
<path d="M263.249 175.542C311.303 176.295 347.444 213.585 346.518 272.708C345.58 332.64 302.675 365.183 257.051 364.469C232.214 364.08 208.297 356.684 194.942 347.294L207.509 303.476L208.859 303.497C222.512 345.566 230.105 360.806 257.371 361.233C284.908 361.664 316.853 339.212 317.787 279.549C318.603 227.445 289.38 196.744 255.634 196.216C231.877 195.844 205.825 204.077 193.878 242.775L192.532 242.484C197.713 204.76 223.294 174.917 263.249 175.542Z" fill="black"/>
</g>
<defs>
<clipPath id="clip0_202_31">
<rect width="447" height="448" fill="white"/>
</clipPath>
</defs>
</svg>
